PathFileType	4	(X/Y/Z)	C:\Users\Basilio\Documents\Thesis Gigler\squatting_fais\c3dfiles\044\SJ_pre5\markers_experimental.trc
DataRate	CameraRate	NumFrames	NumMarkers	Units	OrigDataRate	OrigDataStartFrame	OrigNumFrames
200.000000	200.000000	4	61	mm	200.000000	1410	1880
Frame#	Time	FHD			LBHD			RBHD			C7			T10			CLAV			LSHO			LUUPA			LMUPA			LDUPA			LLEP			LMEP			LRAD			LUL			LRFIN			RSHO			RUPA1			RMUPA			RDUPA			RLEP			RMEP			RRAD			RUL			RUFIN			LASI			RASI			USACR			LSACR			RSACR			LTHI1			LTHI2			LTHI3			LTHI4			LLFC			LMFC			LTIB1			LTIB2			LTIB3			LTIB4			LLMAL			LMMAL			LHEE			LMT1			LMT2			LMT5			RTHI			RTHI2			RTHI3			RTHI4			RLFC			RMFC			RTIB1			RTIB2			RTIB3			RTIB4			RLMAL			RMMAL			RHEE			RMT1			RMT2			RMT5			
		X1	Y1	Z1	X2	Y2	Z2	X3	Y3	Z3	X4	Y4	Z4	X5	Y5	Z5	X6	Y6	Z6	X7	Y7	Z7	X8	Y8	Z8	X9	Y9	Z9	X10	Y10	Z10	X11	Y11	Z11	X12	Y12	Z12	X13	Y13	Z13	X14	Y14	Z14	X15	Y15	Z15	X16	Y16	Z16	X17	Y17	Z17	X18	Y18	Z18	X19	Y19	Z19	X20	Y20	Z20	X21	Y21	Z21	X22	Y22	Z22	X23	Y23	Z23	X24	Y24	Z24	X25	Y25	Z25	X26	Y26	Z26	X27	Y27	Z27	X28	Y28	Z28	X29	Y29	Z29	X30	Y30	Z30	X31	Y31	Z31	X32	Y32	Z32	X33	Y33	Z33	X34	Y34	Z34	X35	Y35	Z35	X36	Y36	Z36	X37	Y37	Z37	X38	Y38	Z38	X39	Y39	Z39	X40	Y40	Z40	X41	Y41	Z41	X42	Y42	Z42	X43	Y43	Z43	X44	Y44	Z44	X45	Y45	Z45	X46	Y46	Z46	X47	Y47	Z47	X48	Y48	Z48	X49	Y49	Z49	X50	Y50	Z50	X51	Y51	Z51	X52	Y52	Z52	X53	Y53	Z53	X54	Y54	Z54	X55	Y55	Z55	X56	Y56	Z56	X57	Y57	Z57	X58	Y58	Z58	X59	Y59	Z59	X60	Y60	Z60	X61	Y61	Z61	

1411	7.05	-301.2395324707032	2152.87841796875	-919.3898925781252	-385.9481811523439	2056.451904296875	-1011.342956542969	-441.5022888183595	2019.889892578125	-856.0797119140627	-426.018035888672	1885.75732421875	-931.958679199219	-404.768035888672	1576.376220703125	-922.763854980469	-279.5909729003907	1882.073364257813	-916.4902343750002	-291.3625793457032	1913.088989257813	-1088.238891601563	-278.8915100097657	1717.765869140625	-1230.45556640625	-253.6684570312501	1683.68896484375	-1203.199096679688	-272.7116394042969	1652.261352539063	-1252.249633789063	-266.9483642578126	1593.712524414063	-1256.518676757813	-348.0752258300782	1591.464233398438	-1241.0068359375	-297.7874755859376	1343.335083007813	-1121.197387695313	-247.2255096435547	1326.058349609375	-1164.588989257813	-251.4418487548829	1348.57666015625	-1073.087158203125	-329.9420471191407	1897.609619140625	-732.3865356445314	-354.3427124023438	1705.363525390625	-598.1749267578126	-318.3453674316407	1672.192626953125	-612.5325927734376	-349.4102478027344	1639.536865234375	-574.1293334960939	-339.2314453125001	1577.738037109375	-565.6652832031251	-415.4702453613282	1568.10205078125	-601.7750854492189	-333.7042846679688	1321.010009765625	-686.0711059570314	-294.2212524414063	1308.248901367188	-626.4927368164064	-268.2039794921876	1329.8095703125	-720.5393066406251	-223.0279235839844	1374.325317382813	-1013.76171875	-223.7957305908204	1359.47021484375	-791.9074707031252	-381.9903869628907	1439.127807617188	-909.7956542968752	-390.8152465820314	1407.340576171875	-935.6351318359377	-387.9732360839845	1410.8291015625	-878.784606933594	-374.0822143554688	1152.77587890625	-1091.951049804688	-354.1458435058594	1070.566650390625	-1099.201416015625	-307.0538330078126	1064.561645507813	-1097.644897460938	-392.0754699707032	1022.950744628906	-1083.803955078125	-404.1177062988282	862.559997558594	-1077.740234375	-377.8539733886719	846.476989746094	-958.0686035156252	-395.6685791015626	679.7962036132814	-1028.15771484375	-445.2915954589845	645.2489013671876	-1092.05126953125	-405.3480224609376	635.4834594726564	-1066.666137695313	-428.3089599609376	558.4235229492189	-1040.002563476563	-510.4691772460939	448.8892517089845	-1081.884033203125	-471.3489990234376	447.2720947265626	-1003.976928710938	-567.6297607421876	435.4398193359376	-1023.90087890625	-377.7437744140626	336.9361572265626	-1031.505615234375	-381.2227172851563	338.8347167968751	-1076.821411132813	-433.5371093750001	328.4619750976563	-1111.306274414063	-369.7170715332032	1113.010131835938	-723.3604125976564	-338.7183227539063	1053.872924804688	-719.5075683593751	-306.2294616699219	1050.130249023438	-723.3582763671876	-375.8347167968751	979.4193115234377	-737.5438842773439	-400.462860107422	866.4144287109377	-745.8099975585939	-389.5169982910157	856.508483886719	-869.684509277344	-374.7196350097657	732.2735595703126	-761.4006347656251	-463.4291076660157	673.9796142578126	-729.5272216796876	-420.9661560058595	661.1825561523439	-736.6177368164064	-413.0467224121095	607.7869262695314	-758.2275390625001	-502.2270812988282	463.3255615234376	-753.1036987304689	-466.0379943847657	463.965057373047	-831.1690673828127	-555.9549560546876	471.4598693847657	-810.5616455078127	-401.8992004394532	326.9417114257813	-816.660339355469	-405.1862182617189	317.0147705078126	-781.460876464844	-456.5464477539064	317.6609191894532	-739.0063476562501	
1412	7.055	-303.5059814453126	2155.80908203125	-919.5391235351565	-387.7877807617189	2059.97021484375	-1011.372436523438	-443.184051513672	2022.531005859375	-856.1495361328127	-427.4700927734376	1888.125610351563	-931.875427246094	-405.009002685547	1578.996948242188	-922.6364746093752	-280.4227294921876	1885.139526367188	-916.5922851562502	-293.1491699218751	1915.806518554688	-1088.517700195313	-280.0700988769532	1720.62548828125	-1231.345581054688	-254.3264465332032	1686.893188476563	-1204.340209960938	-273.3927001953126	1655.329711914063	-1253.385131835938	-267.1785583496094	1596.729736328125	-1257.585571289063	-348.4096069335938	1594.382202148438	-1242.04638671875	-297.1861572265626	1346.84716796875	-1121.269775390625	-245.9350128173829	1329.761108398438	-1164.660034179688	-251.0589294433594	1352.054931640625	-1072.965576171875	-331.4629211425782	1900.746826171875	-732.5346679687501	-354.5662231445313	1708.495971679688	-597.4442749023439	-318.6667785644532	1675.636108398438	-611.9561157226564	-349.3393249511719	1643.008666992188	-573.4381103515626	-339.2107238769532	1581.093139648438	-564.9019775390626	-415.3150939941407	1570.876220703125	-600.7434692382814	-332.3558044433594	1324.616088867188	-685.6484985351564	-292.5637207031251	1311.92578125	-626.0831909179689	-267.4274902343751	1333.242309570313	-720.9041137695314	-223.1480560302735	1377.45263671875	-1013.782104492188	-223.5753021240235	1362.646484375	-792.3926391601565	-382.0313110351563	1442.536743164063	-909.7705078125002	-390.8309936523439	1410.49853515625	-935.6510009765627	-388.1581420898439	1414.234130859375	-878.6636962890627	-375.2952270507813	1156.37109375	-1091.536987304688	-356.3245239257813	1073.28271484375	-1098.751586914063	-309.6915283203126	1066.994262695313	-1097.224853515625	-392.9469604492189	1026.028564453125	-1083.67724609375	-404.3607482910157	865.760437011719	-1077.966796875	-376.7659912109376	849.3442382812502	-958.6910400390627	-395.8928222656251	682.6499633789064	-1028.622436523438	-445.5741577148439	649.0918579101564	-1092.179931640625	-406.0713500976564	638.6845092773439	-1067.007202148438	-428.6614685058595	561.5967407226564	-1040.409545898438	-511.3170471191407	452.6234130859376	-1081.995361328125	-471.7668457031251	450.8208618164064	-1004.3896484375	-568.7663574218751	439.1063232421876	-1024.304443359375	-378.9166870117188	339.9384155273438	-1030.644287109375	-381.6114807128907	342.3934631347657	-1077.136474609375	-434.4114074707032	331.3213806152344	-1110.576171875	-370.0942077636719	1116.19873046875	-723.3741455078126	-339.5124206542969	1057.134643554688	-719.3765869140626	-306.9223022460938	1053.387939453125	-723.1102905273439	-376.3385620117188	982.9397583007815	-737.5975341796876	-400.7751464843751	869.489685058594	-746.0043334960939	-388.667449951172	859.600769042969	-869.9204711914065	-375.2368164062501	735.4005126953126	-761.4031982421876	-464.240447998047	677.2407836914064	-730.1219482421876	-421.8336181640626	664.3007812500001	-736.8028564453126	-413.5981445312501	610.6693115234376	-758.7038574218751	-503.221405029297	466.7102966308595	-753.9057006835939	-466.422088623047	467.4566650390626	-832.2952270507815	-557.5207519531251	475.2457275390626	-810.8174438476565	-402.7520141601564	330.2128295898438	-818.1527099609377	-406.3987426757814	320.8273010253907	-783.2195434570315	-457.6282958984376	320.6950683593751	-740.4968872070314	
1413	7.06	-305.6188049316407	2158.4375	-919.7077636718752	-389.824188232422	2061.37060546875	-1011.693054199219	-444.6041259765626	2025.537841796875	-856.4691162109377	-428.6749877929689	1890.187866210938	-931.9368286132815	-405.4140625000001	1581.23828125	-922.5687255859377	-281.9585876464844	1887.820678710938	-916.7646484375002	-294.7093811035157	1918.173583984375	-1088.805541992188	-281.0467224121094	1723.486694335938	-1232.194580078125	-255.159408569336	1689.877197265625	-1205.445068359375	-274.0014038085938	1658.135498046875	-1254.318725585938	-267.4498596191407	1599.687866210938	-1258.760131835938	-348.4246826171876	1596.734130859375	-1243.025634765625	-296.5745544433594	1350.098876953125	-1121.44873046875	-245.4213409423829	1333.091674804688	-1164.724243164063	-250.8593292236329	1355.385009765625	-1072.665893554688	-333.0054016113282	1903.59912109375	-732.6811523437501	-354.8539123535157	1711.842895507813	-596.8274536132814	-319.1795959472657	1678.90478515625	-611.1250610351564	-349.3012084960938	1645.911010742188	-572.8336791992189	-338.9619140625001	1584.31005859375	-564.2531127929689	-415.1927795410157	1573.817749023438	-599.6619262695314	-331.4663696289063	1327.814086914063	-685.1895751953126	-291.3797302246094	1315.3798828125	-626.0271606445314	-266.4927673339844	1336.818359375	-721.0908203125001	-223.260238647461	1380.38037109375	-1013.793701171875	-223.5543212890626	1365.9921875	-792.9971313476565	-382.1306457519532	1445.678833007813	-909.6511230468752	-390.9815673828126	1413.642456054688	-935.5793457031252	-388.3309326171876	1416.962036132813	-878.622009277344	-376.4897766113282	1159.20703125	-1091.117553710938	-356.9836730957032	1076.95458984375	-1099.33544921875	-309.5460815429688	1070.899780273438	-1098.611450195313	-394.0261840820314	1028.9853515625	-1083.432006835938	-404.3925781250001	868.7055664062502	-1078.35888671875	-375.9189147949219	852.246520996094	-959.466979980469	-396.0106506347657	685.3868408203126	-1028.968872070313	-446.3791809082032	651.6711425781251	-1092.574584960938	-406.5609741210939	641.4246215820314	-1067.307373046875	-429.3047485351564	564.8679809570314	-1040.445068359375	-511.7980957031251	455.5388183593751	-1082.117431640625	-473.362030029297	453.662322998047	-1003.922241210938	-568.8724365234376	442.1600952148439	-1025.388793945313	-380.4404296875001	342.7075805664063	-1029.43603515625	-384.9556884765626	342.9618225097657	-1075.187744140625	-435.1587829589845	333.5140686035157	-1109.903442382813	-370.8388366699219	1119.512939453125	-723.3188476562501	-340.0198974609376	1060.164306640625	-719.5166625976564	-307.4762573242188	1056.371337890625	-722.7715454101564	-376.9304199218751	985.7890625000002	-737.3723144531251	-400.801483154297	872.2903442382815	-746.1842651367189	-388.0686340332032	862.3953857421877	-869.989685058594	-375.4920349121094	738.2056274414064	-761.6063232421876	-464.9143066406251	680.4666137695314	-730.7590942382814	-422.4201660156251	667.2692260742189	-737.3771972656251	-414.3023681640626	613.6124877929689	-758.9376831054689	-504.1674194335939	469.7803344726564	-754.5105590820314	-467.9453430175782	470.5156250000001	-832.9077148437502	-558.3532104492189	478.4480895996095	-811.2278442382815	-404.4955444335939	333.3581542968751	-819.6967773437502	-407.9745178222657	323.5577392578126	-784.7856445312502	-459.0210876464845	323.7883605957032	-741.7525634765626	
1414	7.065	-307.0751953125001	2160.998291015625	-920.259460449219	-391.8238525390626	2063.5556640625	-1011.928527832031	-446.1442871093751	2027.852294921875	-856.6921997070315	-430.1116943359376	1891.918579101563	-931.9476318359377	-405.8690795898439	1583.080322265625	-922.5355224609377	-282.9818725585938	1890.299072265625	-916.8796997070315	-296.2715454101563	1920.591918945313	-1089.044555664063	-281.9546813964844	1726.20947265625	-1233.080810546875	-255.8260498046876	1692.4501953125	-1206.324340820313	-274.6401977539063	1660.945434570313	-1255.291625976563	-267.9075622558594	1602.257202148438	-1259.703979492188	-346.9627685546876	1598.697021484375	-1244.339111328125	-296.4088134765626	1353.05419921875	-1121.691772460938	-244.7835235595704	1336.205810546875	-1164.72802734375	-250.9686889648438	1358.177734375	-1072.287109375	-334.3740539550782	1906.107299804688	-732.7934570312501	-355.0486450195313	1714.934326171875	-596.1770019531251	-319.5351562500001	1682.109741210938	-610.7079467773439	-349.2205810546876	1649.105834960938	-572.0839843750001	-338.6711730957032	1587.486450195313	-563.6304321289064	-414.9859924316407	1576.7041015625	-598.6026000976564	-330.2533569335938	1330.944946289063	-684.6597900390626	-289.9013061523438	1318.708618164063	-626.9222412109376	-265.7606201171876	1340.048828125	-721.4860839843751	-223.5377960205079	1382.95849609375	-1013.839721679688	-223.5843963623047	1368.6953125	-793.4023437500002	-382.3024597167969	1448.633666992188	-909.6050415039065	-391.1707458496095	1416.540405273438	-935.555114746094	-388.3420410156251	1419.855834960938	-878.5858154296877	-377.5787048339844	1161.910522460938	-1090.860229492188	-358.6702575683594	1079.112915039063	-1099.061645507813	-311.0357360839844	1073.926513671875	-1099.038208007813	-394.9826965332032	1031.871459960938	-1083.142456054688	-404.4308471679689	871.3427734375002	-1078.76513671875	-375.8818664550782	854.6208496093752	-959.9616699218752	-396.175506591797	688.0951538085939	-1028.997314453125	-446.3606262207032	654.0745239257814	-1092.92041015625	-407.0372314453126	643.7631225585939	-1067.248168945313	-430.3071899414064	567.1406250000001	-1040.502197265625	-512.3378906250001	457.8555603027345	-1082.74658203125	-474.486053466797	456.5933227539064	-1003.996704101563	-570.6505737304689	446.0084838867189	-1025.986938476563	-381.8429260253907	345.1153259277344	-1027.57568359375	-386.3130493164064	344.8407897949219	-1073.762817382813	-435.8723144531251	335.8446350097657	-1109.015258789063	-371.3119812011719	1122.163818359375	-722.9609375000001	-340.6030578613282	1062.966674804688	-719.2961425781251	-308.1137390136719	1059.107543945313	-722.5988159179689	-377.1244812011719	987.7889404296877	-736.7211914062501	-400.650360107422	874.8228149414065	-746.3883056640626	-387.2996826171876	864.8610839843752	-870.0994873046877	-375.7633361816407	740.5518798828126	-761.7573852539064	-465.4413452148439	683.1226196289064	-731.0426025390626	-422.8290405273439	669.8897094726564	-737.8403320312501	-415.0769653320314	616.2883300781251	-759.4189453125001	-505.1907043457032	472.7565002441407	-755.1439819335939	-469.221405029297	473.598358154297	-833.6028442382815	-559.6934204101564	481.4649353027345	-811.3479003906252	-406.2525939941407	335.8892211914063	-820.9631958007815	-409.4949645996095	326.0910034179688	-786.3139648437502	-460.1855468750001	326.3648986816407	-742.9471435546876	
